<?xml version="1.0" encoding="UTF-8"?><svg id="Layer_1" fill="#dc2626" xmlns="http://www.w3.org/2000/svg" viewBox="0 0 508.22 321"><path d="m78.97,75.31c3.62-.27,7.7-.52,11.77-.88,7.51-.66,14.66,1.3,21.84,3,20.55,4.88,41.21,9.32,61.56,14.92,17.9,4.93,35.43,11.23,53.14,16.85,13.91,4.41,27.82,8.82,41.79,13.01,5.25,1.58,8.87,4.7,11.1,9.55,1.2,2.61,2.19,5.32,3.36,7.95,4.28,9.61,11.93,14.58,22.17,15.93,9.74,1.28,18.8-1.83,27.89-4.45,11.59-3.33,23.06-7.12,34.65-10.44,7.1-2.03,13.71-.48,19.32,4.36,1.59,1.37,3.04,3.25,3.79,5.19,6.46,16.75,12.9,33.52,19.03,50.39,7.31,20.1,14.35,40.3,21.42,60.48,1.89,5.38,7.11,8.95,12.72,8.11,10.97-1.66,21.91-3.61,32.9-5.12,5.62-.77,11.32-.93,16.99-1.24,6.24-.34,13.4,8.3,13.73,14.49.82,15.69-5.37,28.29-17.98,37.2-7.85,5.54-17.16,7.01-26.83,5.12-18.95-3.71-37.71-8.14-56.29-13.42-7.95-2.26-14.69-5.85-19.85-12.31-.31-.38-.69-.71-1.03-1.06-13.81-14.3-27.66-28.55-41.4-42.92-4.28-4.48-8.44-9.11-12.23-14-2.11-2.72-3.49-6.06-4.97-9.23-2.17-4.64-3.92-9.48-6.26-14.03-1.52-2.96-3.35-6.03-5.78-8.23-9.43-8.56-19.07-16.91-28.83-25.1-3.77-3.16-8.21-5.37-13.12-6.48-5.65-1.28-11.09-.18-16.39,1.52-15.03,4.82-29.96,9.95-45,14.71-8.42,2.66-16.97,4.91-25.51,7.15-1.35.35-3.23.14-4.4-.57-3.77-2.3-6.94-5.3-8.43-9.64-.57-1.66-1.5-2.64-3.27-2.76-.77-.05-1.55-.26-2.31-.21-7.79.52-14.95-1.75-21.57-5.48-10.9-6.14-21.76-12.39-32.34-19.06-34.22-21.58-68.3-43.36-102.43-65.08-4.73-3.01-6.28-7.41-4.45-12.7,4.01-11.6,8.1-23.17,12.11-34.77,1.5-4.35,4.56-7.27,8.58-9.12,13.4-6.16,26.8-12.32,40.33-18.21,8.02-3.49,20.16,2.27,22.5,12.77,1.85,8.31-.02,15.86-4.13,23.05-2.7,4.72-7.2,6.08-12.19,6.81-6.76.98-13.11-.92-19.54-2.4-3.72-.86-7.25-.94-10.2,2.1-2.41,2.48-2.41,5.21.22,7.45.79.67,1.72,1.34,2.69,1.6,10.06,2.73,20.21,4.9,31.15,5.18Zm-.73,3.56c-2.63-.2-5.41-.16-8.1-.65-7.86-1.44-15.75-2.86-23.5-4.78-3.46-.86-6.32-3.31-6.93-7.23-.64-4.08,1.39-6.95,4.63-9.24,3.71-2.62,7.71-2.31,11.75-1.36,5.68,1.34,11.32,2.92,17.25,2.33,3.84-.38,7.7-.95,9.99-4.54,4.09-6.4,5.8-13.37,4.19-20.93-1.91-8.93-12.51-13.6-19.61-9.64-2.69,1.5-5.61,2.59-8.42,3.87-9.67,4.36-19.34,8.71-29,13.1-3.07,1.39-6.02,3.17-7.12,6.52-2.81,8.51-5.46,17.07-7.98,25.68-.78,2.67-1.33,5.53-1.26,8.29.1,4.03,2.82,6.83,5.85,9.12,5.95,4.5,11.81,9.18,18.07,13.21,28.85,18.61,57.82,37.02,86.75,55.49,1.54.98,3.18,1.83,4.67,2.88,7.01,4.92,14.77,7.14,23.31,6.42,6.72-.57,12.48,1.42,17.9,5.45,3.21,2.39,7.02,4.09,10.76,5.61,3.89,1.57,8.02,2.52,12.03,3.79,10.84,3.43,21.31,3.02,32.07-1.25,10.41-4.13,21.29-7.13,32.07-10.24,4.06-1.17,8.43-1.81,12.64-1.75,5.95.08,11.48,2.34,16.19,5.96,7.03,5.4,13.88,11.05,20.63,16.79,4.18,3.56,8.17,7.36,11.99,11.3,5.47,5.65,8.02,13.04,10.8,20.12,2.39,6.1,5.61,11.45,10.08,16.13,18.16,19.01,36.29,38.05,54.57,56.94,1.92,1.98,4.63,3.53,7.26,4.42,19.71,6.66,39.98,11.2,60.37,15.2,12.51,2.45,23.62.18,32.39-9.78,7.42-8.43,11.22-18.08,9.82-29.44-.59-4.81-6.1-10.33-10.86-10.13-6.8.29-13.6,1-20.35,1.91-9.75,1.31-19.43,3.04-29.17,4.41-6.27.88-13.3-3.87-15.36-9.75-7.36-20.98-14.69-41.96-22.27-62.86-5.88-16.22-12.08-32.32-18.25-48.44-.6-1.56-1.78-3.07-3.07-4.16-5.11-4.31-11.03-4.98-17.27-3.11-12.51,3.74-24.95,7.68-37.48,11.35-8.45,2.47-16.99,4.65-25.95,3.2-11.3-1.83-19.63-7.6-24.23-18.29-1.25-2.9-2.4-5.85-3.81-8.66-1.54-3.07-3.97-5.08-7.39-6.13-14.63-4.49-29.26-8.97-43.8-13.75-17.92-5.89-35.58-12.62-53.95-17.08-21.14-5.12-42.31-10.13-63.47-15.17-5.34-1.27-10.68-2.5-16.25-2.01-4.35.38-8.71.6-13.2.9Zm131.25,107.73c-.04-.12-.08-.23-.11-.35-3.65-.61-7.34-1.02-10.94-1.85-11.17-2.58-22.23-5.39-31.58-12.68-2.1-1.64-5.03-2.55-7.71-3.01-3.22-.55-6.6-.4-9.9-.32-6.32.15-12.1-1.55-17.43-4.81-8.04-4.91-16.08-9.82-24.02-14.88-22.58-14.42-45.19-28.82-67.63-43.47-7.53-4.92-14.66-10.47-21.8-15.95-4.12-3.16-6.24-7.37-4.88-12.78.23-.9.27-1.84.4-2.77-1.26,2.92-2.3,5.89-3.28,8.87-.98,3.01.09,5.89,2.8,7.64,8.68,5.61,17.34,11.26,26.07,16.8,23.4,14.84,46.8,29.68,70.26,44.42,10.59,6.66,21.25,13.22,32.01,19.6,8.78,5.2,17.93,9.34,28.59,8.75,3.23-.18,5.72,1.49,6.79,4.92.42,1.35,1.41,2.53,2.21,3.75,2.65,4.05,6.05,5.2,10.82,3.61,6.35-2.12,12.89-3.69,19.34-5.49Z"/></svg>
