<?xml version="1.0" encoding="UTF-8"?><svg id="Layer_1" fill="#dc2626" xmlns="http://www.w3.org/2000/svg" viewBox="0 0 492.9 375.43"><path d="m124.13,271.94c-.77.73-1.64,1.39-2.3,2.21-21.25,26.49-44.77,50.92-68.53,75.13-4.35,4.44-8.54,9.04-12.98,13.38-2.22,2.17-4.69,4.2-7.34,5.81-5.89,3.59-10.59-1.42-10.79-6.29-.06-1.48.07-3.01.37-4.47,2.37-11.67,4.83-23.32,7.2-34.99,3.92-19.35,11.45-37.01,22.85-53.28,9.19-13.12,17.08-27.14,25.6-40.73,2.65-4.23,3.96-8.92,5.14-13.7,2.9-11.74,9.72-20.77,20.85-25.24,9.27-3.73,15.96-9.91,22.05-17.31,9.12-11.08,18.39-22.04,27.51-33.12,9.8-11.9,21.48-21.49,34.73-29.35,24.57-14.57,47.85-31.12,71.46-47.17,18.87-12.82,37.6-25.85,56.44-38.71,2.86-1.95,5.98-3.55,9.05-5.18,6.19-3.3,12.02-1.93,17.56,1.66,1.66,1.08,3.16,2.38,4.72,3.61,2.37,1.86,4.96,1.97,7.47.59,2.14-1.18,4.14-2.64,6.08-4.14,4.77-3.67,9.53-7.34,15.24-9.47,5.27-1.96,10.36-1.57,14.99,1.72,14.93,10.6,29.82,21.24,44.69,31.92,3.77,2.71,7.53,5.47,11.07,8.46,1.95,1.65,3.65,3.69,5.11,5.8,5.25,7.57.7,16.41-4.37,19.81-6.05,4.06-12.82,4.22-18.89-.26-6.37-4.7-12.43-9.83-18.63-14.78-1.44-1.15-2.94-2.25-4.28-3.51-2.76-2.58-5.88-2.66-9.11-1.3-1.61.68-3.17,1.62-4.54,2.71-19.26,15.3-39.85,28.47-61.99,39.24-8.1,3.94-16.06,8.16-24.04,12.33-1.86.97-3.62,2.2-5.32,3.44-5.82,4.23-8.47,9.9-7.29,17.08,1.32,8.02,2.98,15.97,7.32,23.02,6.31,10.24,15.55,15.6,27.59,15.26,14.79-.41,29.52.29,44.26,1.36,9.47.69,18.93,1.42,28.4,2.12,9.62.71,17.06,6.53,19.04,14.97,1.12,4.77.31,9.52-.53,14.22-.92,5.14-1.03,10.12,2.48,14.39,1.08,1.31,2.57,2.5,4.11,3.18,8.35,3.69,17.27,5.36,26.18,6.98,7.58,1.38,15.13,2.89,22.14,6.24,5.4,2.58,9.52,6.46,10.28,12.6.37,3-.03,6.35-1.03,9.21-2.9,8.35-6.03,16.64-9.54,24.74-4.04,9.31-11.75,13.96-21.63,14.9-21.56,2.07-41.74-2.41-61.17-11.98-16.72-8.24-31.11-19.4-44.59-32-6.74-6.3-13.51-12.57-20.3-18.81-7.29-6.71-16.04-10.15-25.63-12.34-14.54-3.33-29.17-4.58-44.06-4.57-10.84,0-19.79,3.53-27.63,10.78-6.67,6.17-13.57,12.11-20.34,18.18-8.58,7.69-18.46,13.3-28.81,18.19-13.8,6.52-27.6,13.05-41.43,19.52-1.52.71-3.18,1.34-4.84,1.54-4.75.58-8.3-2.69-8.64-7.65-.13-1.92-.4-3.84-.61-5.76-.28-.06-.56-.12-.84-.18Zm-28.28,22.04c-.72.33-1.62.49-2.13,1.03-11.11,11.7-22.19,23.44-33.25,35.19-5.95,6.32-11.86,12.69-17.83,18.99-2.84,3-6.34,3.33-8.87.93-.64-.6-1.09-1.39-1.82-2.34-1.04,4.98-2.01,9.62-2.98,14.26.28.15.56.3.84.45,1.68-1.44,3.45-2.78,5.01-4.34,2.56-2.56,4.94-5.3,7.45-7.91,14.5-15.08,29.03-30.13,43.51-45.24,3.44-3.59,6.7-7.35,10.04-11.05,6.96-8.24,13.93-16.48,20.88-24.73,2.79-3.31,6.1-5.17,10.72-3.73-1.52-2.37-3.85-3.19-6.08-1.91-2.11,1.22-4.19,2.64-5.89,4.36-3.6,3.64-7.02,7.47-10.37,11.34-1.5,1.74-2.68,3.76-3.97,5.67-1.59,2.36-3.18,4.72-4.7,7.13-.34.53-.37,1.26-.55,1.9Zm37.14-15.21c2.04-.8,3.72-1.35,5.31-2.11,13.8-6.54,27.57-13.14,41.37-19.67,10.2-4.83,19.52-10.92,27.84-18.57,6.04-5.55,12.21-10.96,18.35-16.4,7.84-6.94,16.63-11.42,27.44-11.61,10.74-.19,21.5-.5,32.1,1.36,9.7,1.71,19.35,3.86,28.85,6.46,7.87,2.15,14.03,7.57,20.01,12.85,7.17,6.33,13.99,13.06,20.98,19.6,11.83,11.08,24.75,20.49,39.34,27.78,18.1,9.05,36.94,13.4,57.13,11.6,7.8-.7,13.84-4.15,16.88-11.65,3.14-7.75,6.1-15.59,8.95-23.45.65-1.78.9-3.91.64-5.78-.54-3.94-3.55-5.96-6.89-7.47-6.26-2.83-12.93-4.18-19.64-5.37-9.19-1.64-18.31-3.53-27.03-7.02-7.78-3.11-11.61-9.28-12.04-17.23-.29-5.18.77-10.44,1.3-15.66.55-5.36-1.89-9.99-6.84-12.1-2.1-.89-4.42-1.5-6.69-1.69-9.66-.83-19.34-1.42-29.01-2.17-13.78-1.07-27.57-1.65-41.39-1.22-2.51.08-5.07.02-7.55-.39-11.94-1.96-21.12-8.08-27.34-18.52-4.4-7.39-6.38-15.57-7.88-23.92-1.69-9.39.26-17.66,7.94-23.71,4.14-3.26,8.78-6,13.45-8.49,11.25-5.99,22.66-11.66,33.99-17.51,13.71-7.07,26.07-16.22,38.65-25.04,3.63-2.54,6.89-5.65,10.63-7.99,6.29-3.93,13.01-3.42,18.79,1.14,6.97,5.5,13.81,11.19,20.78,16.69,1.53,1.2,3.31,2.22,5.13,2.88,3.16,1.15,7.25-.39,9.29-3.16,2.34-3.18,2.41-5.82.07-9.21-.76-1.11-1.67-2.22-2.74-3-18.56-13.49-37.15-26.96-55.8-40.33-1.29-.93-3.14-1.34-4.77-1.47-3.21-.25-5.98,1.33-8.51,3.05-4.58,3.1-8.9,6.57-13.51,9.62-6.31,4.18-11.95,3.86-17.95-.67-1.2-.9-2.32-1.92-3.56-2.76-3.44-2.32-7.03-3.29-10.91-1.01-2.94,1.73-6,3.27-8.81,5.19-16.69,11.4-33.28,22.94-49.98,34.31-25.74,17.51-51.14,35.54-77.88,51.53-11.41,6.83-21.75,14.88-30.3,25.14-9.1,10.92-18.32,21.74-27.33,32.74-7.54,9.2-15.29,17.75-27.08,22.03-6.97,2.53-12.15,8.04-14.79,15.35-.74,2.04-1.57,4.08-2.02,6.2-1.29,6.02-3.76,11.48-7.03,16.66-8.82,13.97-17.6,27.96-26.28,42.01-3.97,6.43-8.15,12.81-11.35,19.63-4.55,9.7-7.08,20.16-9.07,30.66-1.1,5.8-1.55,11.73-2.05,17.62-.16,1.84.17,3.86,2.47,4.68,2.16.77,3.29-.7,4.56-1.92.25-.24.47-.5.7-.75,14.94-15.81,29.89-31.59,44.79-47.43,2.94-3.13,5.97-6.24,8.4-9.75,4.24-6.12,8.31-12.36,13.6-17.64,3.32-3.32,6.63-6.74,10.43-9.45,4.55-3.24,9.88-1.17,11.55,4.2.96,3.09,1.31,6.37,1.92,9.57.15.78.24,1.57.42,2.7Z"/></svg>
