<?xml version="1.0" encoding="UTF-8"?><svg id="Layer_1" fill="#dc2626" xmlns="http://www.w3.org/2000/svg" viewBox="0 0 499.96 481.09"><path d="m69.58,419.41c12.77,0,25.55.1,38.32-.07,3.28-.04,6.59-.73,9.82-1.45,5.13-1.14,10.3-2.28,15.29-3.9,5.37-1.75,10.57-4.03,15.82-6.14,5.65-2.27,11.08-5.22,17.18-6.16,6.97-1.07,13.8-.79,20.34,2.37,3.72,1.8,6.99,4.1,9.79,7.09,8.31,8.84,16.55,17.74,24.94,26.51,1.97,2.06,4.26,3.89,6.67,5.41,1.34.85,3.25,1.28,4.84,1.15,4.75-.4,8.89-2.42,11.89-6.18,3.58-4.49,3.76-9.6,1.41-14.62-1.3-2.79-3.17-5.37-5.09-7.79-3.83-4.82-7.9-9.45-11.84-14.18-4.04-4.84-8.19-9.59-12.02-14.59-5.5-7.17-10.88-14.43-16.08-21.82-4.95-7.03-8.79-14.74-12.22-22.6-2.69-6.15-5.1-12.47-7.05-18.89-1.71-5.62-2.67-11.47-3.84-17.24-.85-4.15-1.54-8.34-2.24-12.52-.86-5.18-1.6-10.39-2.5-15.56-.69-3.98-1.41-7.96-2.35-11.88-1.25-5.2-2.48-10.42-4.17-15.49-1.69-5.08-4.17-9.83-7.07-14.38-4.13-6.48-9.05-12.24-14.71-17.41-6.26-5.71-12.99-10.82-19.91-15.69-5.95-4.19-12.08-8.2-17.64-12.87-7.99-6.71-15.08-14.3-20.79-23.17-5.83-9.06-10.05-18.79-13.3-29.01-2.16-6.79-4.44-13.54-6.69-20.29-3.32-10-6.72-19.97-9.97-30-1.29-3.98-2.55-8.02-3.29-12.12-1.18-6.5-1.42-13.06-.61-19.69,1.04-8.49,3.87-16.3,7.8-23.79,4.2-7.99,10.3-14.32,17.44-19.72,5.99-4.52,12.63-7.86,19.81-9.88,4.24-1.19,8.7-1.84,13.11-2.17,5.95-.44,11.92-.17,17.8,1.06,5.76,1.21,11.53,2.39,17.28,3.67,5.81,1.29,11.6,2.66,17.39,4.01,4.6,1.07,9.17,2.3,13.79,3.21,4.68.93,9.41,1.57,14.12,2.32,8.03,1.28,16.15,1.22,24.23,1.8,5.65.41,11.32.7,16.97,1.13,5.5.42,11.04.65,16.47,1.53,4.09.66,7.64,2.69,10.8,5.71,4.87,4.65,7.83,10.35,10.19,16.4,2.3,5.91,4.36,11.93,6.11,18.02,1.43,5,2.34,10.16,3.32,15.28,1.05,5.48,1.36,11.05,1.17,16.62-.17,4.84-.37,9.67-.75,14.49-.16,2.13-.73,4.23-1.21,6.32-1.28,5.61-2.32,11.31-4.01,16.8-1.88,6.13-3.9,12.24-7.64,17.63-3,4.32-7.24,6.71-11.95,8.47-5.5,2.05-10.84.88-15.9-1.43-8.76-3.99-16.56-9.41-22.82-16.79-3.67-4.33-6.48-9.25-9.32-14.17-3.88-6.72-7.89-13.39-12.29-19.78-6.04-8.77-13.35-16.48-21.09-23.78-5.4-5.09-11.82-6.15-18.89-5.46-6.02.58-10.55,3.74-13.83,8.37-2.71,3.83-3.89,8.43-3.67,13.32.23,5.22,2.04,10.02,3.47,14.93,2,6.9,3.92,13.82,6.06,20.68,2.04,6.52,4.13,13.04,6.53,19.43,2.59,6.89,5.29,13.76,8.42,20.41,5.86,12.43,11.98,24.73,19.08,36.52,4.3,7.14,8.35,14.45,12.9,21.43,4.13,6.34,8.72,12.38,13.25,18.45,4.79,6.43,9.67,12.78,14.63,19.07,2.6,3.3,5.38,6.46,8.22,9.56,7.76,8.47,15.43,17.05,23.47,25.26,6.5,6.64,13.37,12.91,20.28,19.13,4.02,3.62,8.48,6.76,12.66,10.22,2.4,2,4.62,4.22,6.93,6.33,4.44,4.08,5.34,10.89,2.16,15.91-1.79,2.83-3.94,5.43-6,8.08-1.26,1.62-2.69,3.1-3.97,4.69-.45.55-.8,1.23-1.02,1.91-1.89,5.68-1.06,10.76,3.33,15.08,5.53,5.45,12.38,6,19.54,1.58,16.71-10.33,33.44-20.63,50.15-30.96,16.79-10.38,33.58-20.79,50.36-31.19,6.15-3.81,12.2-7.78,18.45-11.41,5.06-2.94,10.67-4.25,16.52-4.52,8.02-.36,15.51,1.46,21.96,6.29,3.06,2.29,5.61,5.28,8.27,8.07,3.51,3.69,5.12,8.45,7.07,13.01,3.3,7.69,6.61,15.37,10.01,23,3.9,8.76,6.84,17.84,8.99,27.17,1.01,4.37,1.39,8.83,1.33,13.35-.08,6.79-.22,13.5-1.67,20.21-1.61,7.46-4.03,14.59-7.73,21.17-3.77,6.72-8.15,13.02-13.76,18.5-6.54,6.4-13.86,11.5-22.04,15.47-5.69,2.76-11.71,4.58-17.82,6.07-3.73.91-7.51,1.6-11.29,2.26-1.43.25-2.93.19-4.39.19-20.71,0-41.42.33-62.11-.12-45.6-.99-91.2.24-136.79-.64-24.9-.48-49.8.22-74.68-.57-21.28-.68-42.56.22-63.82-.58-18.29-.68-36.58.03-54.86-.54-5.19-.16-10.21-1.38-14.7-4.58-5.85-4.17-9.92-9.53-12.08-16.24-2.43-7.55-1.06-14.78,2.83-21.57,5.02-8.76,12.68-13.89,22.48-15.86,2.47-.5,5.04-.64,7.56-.65,11.5-.07,23-.03,34.51-.03,0,0,0,0,0-.01Zm330.92,49.94v.07c2.25,0,4.5,0,6.75,0,4.8-.03,9.63.31,14.38-.19,6.64-.7,13.2-2.08,19.62-4.07,9.64-2.99,18.09-7.92,25.53-14.74,6.7-6.14,11.89-13.34,15.62-21.57,4.01-8.87,5.98-18.24,6.11-27.97.04-3.03.26-6.12-.21-9.09-.69-4.36-1.83-8.66-2.95-12.94-2.11-8.09-5.45-15.73-8.79-23.37-2.61-5.98-5.13-12-7.79-17.96-1.82-4.07-3.38-8.23-6.66-11.56-4.56-4.64-9.54-7.96-16.33-7.98-5.14-.01-10.19.24-14.73,2.93-3.19,1.89-6.23,4.02-9.39,5.97-8.33,5.14-16.69,10.22-25.03,15.35-5.68,3.5-11.34,7.04-17.02,10.55-7.66,4.73-15.34,9.44-22.99,14.18-6.54,4.05-13.04,8.17-19.58,12.21-5.75,3.56-11.57,6.99-17.29,10.61-4.52,2.86-9,5.75-14.06,7.6-4.3,1.57-8.7,1.49-13.13.97-1.1-.13-2.17-.57-3.23-.91-4.4-1.44-7.73-4.38-10.95-7.58-5.15-5.11-7.55-11.18-7.14-18.36.25-4.41,1.29-8.63,4.06-12.18,2.71-3.47,5.56-6.82,8.38-10.21,1.67-2,1.71-3.62-.24-5.36-2.48-2.21-5.1-4.26-7.65-6.39-5.4-4.51-11.04-8.77-16.14-13.6-13.25-12.55-26.18-25.44-38.16-39.23-3.91-4.5-7.89-8.94-11.62-13.59-4.06-5.07-7.83-10.36-11.78-15.52-8.88-11.6-17.28-23.51-24.37-36.31-5.33-9.62-10.86-19.14-15.86-28.94-4.62-9.06-8.98-18.28-12.85-27.68-3.54-8.6-6.44-17.47-9.31-26.33-2.64-8.11-4.86-16.36-7.28-24.54-1.74-5.91-3.32-11.78-3.09-18.09.27-7.45,2.38-14.04,7.14-19.83,4.18-5.08,9.19-8.71,15.57-10.62,6.04-1.81,12.09-1.73,18.12-.64,5.81,1.05,10.73,4.14,15.01,8.12,6.88,6.41,13.38,13.17,19.09,20.67,6.05,7.95,11.55,16.24,16.27,25.04,2.47,4.61,5.03,9.17,8.47,13.13,5.37,6.17,11.95,10.74,19.47,13.96,5.3,2.26,11.22-.08,13.52-4.81,1.51-3.1,3.08-6.25,4.04-9.55,1.86-6.4,3.39-12.91,4.91-19.41.62-2.65,1-5.38,1.19-8.1.27-3.85.27-7.73.37-11.59.14-6.03-.43-12.01-1.72-17.89-.93-4.28-2.12-8.5-3.28-12.73-2.15-7.83-4.93-15.41-9.12-22.42-2.08-3.48-5.11-5.79-9.07-6.29-5.27-.67-10.61-.91-15.92-1.23-5.17-.31-10.35-.42-15.51-.76-7.16-.47-14.32-1-21.47-1.66-4.03-.37-8.05-.92-12.03-1.67-4.32-.81-8.57-1.96-12.86-2.92-7.72-1.74-15.48-3.33-23.16-5.21-8.82-2.16-17.63-4.3-26.72-4.94-4.41-.31-8.81-.05-13.1.92-6.57,1.49-12.73,4.06-18.29,7.92-5.8,4.02-10.9,8.8-14.49,14.93-4.03,6.88-7.07,14.21-7.57,22.26-.3,4.86-.37,9.83.3,14.63.64,4.55,2.22,8.99,3.66,13.39,5.11,15.59,10.34,31.15,15.53,46.72,2.88,8.66,5.53,17.43,10.73,25.09,3.15,4.64,6.15,9.45,9.82,13.66,6.29,7.21,13.84,13.03,21.81,18.38,6.97,4.68,13.72,9.73,20.26,14.99,5.63,4.53,11.01,9.39,15.6,15.06,6.43,7.95,11.95,16.43,15.33,26.14,1.41,4.05,2.57,8.2,3.55,12.37,1.38,5.84,2.62,11.72,3.7,17.62,1.18,6.48,2.04,13.01,3.15,19.51.81,4.71,1.88,9.37,2.68,14.09,1.64,9.66,4.93,18.81,8.91,27.69,3.69,8.23,7.68,16.38,13.06,23.67,6.64,9.01,13.46,17.89,20.45,26.64,5.8,7.26,12.07,14.13,17.9,21.37,2.8,3.48,5.19,7.24,6.87,11.52,2.74,6.97,2.1,13.68-1.06,20.08-2.45,4.97-6.53,8.79-11.45,11.4-5.43,2.89-11.1,5.08-17.49,3.32-3.24-.89-6.55-1.98-8.88-4.26-6.44-6.28-12.62-12.83-18.72-19.44-4.71-5.1-9.1-10.49-14.58-14.82-2.86-2.26-6.08-3.89-9.67-4.23-4.37-.42-8.72-.06-12.88,1.8-4.97,2.23-9.99,4.35-15.09,6.24-6.24,2.32-12.55,4.51-18.91,6.48-3.47,1.08-7.11,1.65-10.69,2.34-2.53.49-5.08,1.03-7.64,1.15-6.58.32-13.17.61-19.76.59-18.14-.07-36.27-.33-54.41-.46-1.93-.01-3.88.25-5.8.52-5.12.71-9.46,2.96-12.88,6.88-2.39,2.74-3.94,5.83-4.49,9.48-1.42,9.45,6.6,19.09,17.29,19.17,27.94.19,55.89.38,83.83.6,21.82.17,43.65.39,65.47.57,24.03.2,48.05.46,72.08.57,24.52.11,49.04.01,73.57.11,18.89.08,37.77.34,56.66.49,6.17.05,12.34,0,18.5,0Z"/></svg>
