<?xml version="1.0" encoding="UTF-8"?><svg id="Layer_1" fill="#dc2626" xmlns="http://www.w3.org/2000/svg" viewBox="0 0 564.82 473.21"><path d="m247.02,455.35c-16.6,0-33.21-.1-49.81.02-42.95.32-85.91.78-128.86,1.07-5.11.03-10.24-.56-15.34-1.03-5.07-.46-9.06-3.14-11.95-7.11-2.42-3.32-4.48-6.96-6.26-10.67-2.75-5.73-2.14-11.54.57-17.18,5.3-11.04,14.15-17,26.33-17.05,14.24-.06,28.52.07,42.72,1.05,22.57,1.55,44.05-1.97,64.81-10.95,6.14-2.65,12.69-4.65,19.26-5.89,4.56-.86,9.53-.35,14.17.4,2.54.41,5.3,2.12,7.07,4.06,7.84,8.59,15.33,17.49,22.99,26.24,3.33,3.8,6.61,7.66,10.17,11.23,5.3,5.31,11.87,5.67,18.61,3.69,6.27-1.85,9.51-6.82,10.63-12.84.99-5.29-1.05-10.22-4.42-14.29-8.73-10.56-17.68-20.94-26.49-31.44-7.36-8.77-14.85-17.44-21.89-26.47-11.27-14.45-17.09-31.37-20.5-49.07-2.69-13.94-4.4-28.07-6.6-42.1-2.84-18.11-10.23-33.75-23.36-46.98-13.67-13.76-28.55-25.91-44.18-37.26-9.5-6.9-16.77-15.59-21.92-26.28-8.79-18.22-15.13-37.34-21.51-56.46-2.07-6.2-4.59-12.44-5.38-18.85-2.16-17.63,1.59-33.85,13.88-47.39,9.13-10.06,19.82-17.49,33.54-19.75,9.74-1.61,19.45-.97,29,1.13,12.89,2.83,25.61,6.46,38.55,9.03,10.04,1.99,20.27,3.06,30.45,4.18,11.55,1.27,23.24,1.52,34.68,3.4,8.82,1.45,16.19,6.15,20.32,14.84,8.58,18.06,13.08,36.98,11.71,56.99-.97,14.13-3.84,28-9.53,41.03-4.5,10.31-14.61,14.03-25.21,10.21-8.75-3.16-15.26-9.28-20.69-16.42-5.71-7.51-10.79-15.52-15.98-23.41-6.75-10.26-13.83-20.25-22.59-28.93-10.19-10.11-26.98-10.09-36,.11-3.09,3.5-4.59,7.54-4.81,12.29-.59,12.83,3.44,24.61,7.59,36.44,10.59,30.19,23.18,59.45,40.1,86.72,10.68,17.21,23.37,32.92,36.59,48.19,9.15,10.57,18.36,21.12,28.17,31.08,7.83,7.95,16.61,14.96,24.93,22.42,3.63,3.25,7.37,6.4,10.72,9.91,4.72,4.93,4.68,9.25.57,14.72-2.76,3.67-5.59,7.31-7.96,11.24-4.02,6.67-.29,17.59,6.88,20.53,2.39.98,4.96,1.63,7.5,2.11,3.02.56,5.81-.19,8.48-1.86,36.5-22.81,73.06-45.52,109.54-68.36,8.14-5.1,16.88-7.65,26.39-7.05,8.38.53,15.46,4.03,20.57,10.86,7.58,10.13,12.06,21.81,16.53,33.5,4.94,12.91,8.53,26.14,9.93,39.9,2.64,25.93-11.73,54.73-35,65.98-9.09,4.4-18.21,8.81-28.28,10.16-6.76.91-13.67.87-20.52.86-54.69-.15-109.38-.4-164.07-.62-1.62,0-3.25,0-4.87,0,0,.06,0,.11,0,.17Zm120.52-7.08c0,.27,0,.55,0,.82,19.31.42,38.61.85,57.92,1.24,2.61.05,5.25.13,7.83-.18,9.68-1.18,18.44-5.13,27.22-9.12,24.22-10.97,36.99-39.91,33.84-63.49-1.69-12.62-4.91-24.82-9.46-36.71-4.15-10.85-8.37-21.63-15.05-31.26-2.61-3.77-5.98-6.45-10.24-8.04-10.49-3.93-20.32-1.6-29.36,3.99-36.92,22.82-73.7,45.87-110.56,68.78-1.87,1.16-4.01,2.1-6.14,2.55-5.51,1.15-10.73-.35-15.69-2.66-9.42-4.39-13.92-18.54-8.57-27.53,2.62-4.39,5.81-8.46,8.89-12.56,1.75-2.33,1.8-4.52-.13-6.56-2.35-2.49-4.72-5-7.37-7.14-15.95-12.91-30.82-26.91-44.37-42.37-14.68-16.76-29.33-33.54-42.1-51.84-16.99-24.35-29.98-50.82-40.54-78.48-5.82-15.25-12.59-30.27-14.9-46.59-.86-6.06-1.22-12.61.14-18.48,3.45-14.93,19.25-21.18,31.82-19.01,9.32,1.61,16.09,7.07,22.12,13.96,9.18,10.49,16.76,22.09,24.07,33.9,4.86,7.85,10.19,15.36,17.19,21.45,2.88,2.5,6.21,4.69,9.67,6.26,9.36,4.25,17.05,1.23,20.71-8.35,4.35-11.37,7.07-23.23,8.12-35.36,1.74-20.04-2.56-38.98-11.28-57-3.37-6.97-9.62-10.55-16.59-11.66-10.56-1.68-21.36-1.81-32.01-3-11.43-1.28-22.91-2.53-34.2-4.68-15.25-2.91-30.23-7.28-45.52-9.9-17.44-2.99-32.89,1.78-45.81,14.42-14.85,14.55-20.29,32.33-14.95,51.84,5.89,21.51,13.65,42.56,22.63,63.1,5.81,13.27,14.21,24.04,26.12,32.31,15.22,10.57,29.14,22.66,42.13,35.93,12.45,12.73,20.44,27.53,23.44,44.97,2.58,14.97,4.31,30.09,7.19,45,3.42,17.69,8.97,34.73,20.47,49.08,7.89,9.84,16.19,19.36,24.29,29.04,8.04,9.61,16.17,19.15,24.04,28.89,3.61,4.47,5.46,9.92,4.96,15.63-.76,8.61-5.07,15.45-13.32,18.43-8.85,3.2-17.66,2.57-24.89-4.44-3.49-3.38-6.66-7.11-9.86-10.77-7.78-8.88-15.42-17.9-23.34-26.66-1.45-1.6-3.89-2.96-6-3.17-4.15-.42-8.63-.78-12.56.32-8.8,2.45-17.37,5.77-26,8.81-10.88,3.83-21.84,7.77-33.46,7.81-15.87.06-31.74-.96-47.61-1.19-8.08-.11-16.29-.22-24.24.97-9.62,1.44-15.31,8.33-17.44,17.44-1.8,7.69,2.38,13.55,8.26,18.09,1.85,1.43,4.1,2.73,6.35,3.18,3.15.62,6.47.55,9.71.5,15.97-.27,31.93-.72,47.9-.94,34.47-.47,68.94-.8,103.4-1.25,9.55-.13,19.12-.94,28.65-.63,10.61.35,21.07-.05,31.42-2.39,6.88-1.56,13.49-1.77,19.73,2.29,1.29.84,3.04,1.26,4.61,1.35,8.01.47,16.03.99,24.04,1.08,14.88.17,29.77.05,44.66.05Zm7,2.07v-.22c-22.2-.42-44.39-.8-66.58-1.29-6.12-.14-12.28-.41-17.74-3.77-3.37-2.08-7.02-2.13-10.71-1.35-10.61,2.24-21.32,3.36-32.17,3.44-15.42.11-30.85.24-46.27.47-42.85.63-85.7,1.36-128.55,1.92-7.67.1-15.41.62-23.08-.81.91.46,1.86,1.07,2.85,1.17,5.64.56,11.29,1.44,16.93,1.39,56.12-.42,112.24-1.13,168.36-1.46,27.79-.16,55.58.37,83.37.51,17.86.09,35.73.02,53.59.02Z"/></svg>
