<?xml version="1.0" encoding="UTF-8"?><svg id="Layer_1" fill="#dc2626" xmlns="http://www.w3.org/2000/svg" viewBox="0 0 496.61 192.82"><path d="m244.46,90.81c.53-1.42.96-2.7,1.49-3.93.61-1.41,1.63-2.12,3.29-2.2,14.71-.69,29.42-1.38,44.12-2.24,19.11-1.12,38.08-3.1,56.38-9.24,10.25-3.44,20.19-7.49,27.73-15.53,4.52-4.83,8.62-10.1,12.53-15.45,4.87-6.66,9.34-13.61,14-20.43.51-.74,1.11-1.43,1.73-2.08,2.88-3,4.56-3.25,8.17-1.25q2.56,1.42,4.29-.95c2.28-3.13,4.56-6.25,6.84-9.37,4.47-6.11,9.8-7.93,17.13-5.88,9.57,2.68,19.06,5.6,27.95,10.15,4.8,2.46,9.38,5.18,12.35,9.95,2.06,3.32,3.23,6.84,3.18,10.78-.11,8.89-1.85,17.55-3.55,26.22-1.74,8.93-3.82,17.86-3.18,27.01.58,8.41,1.6,16.82,2.85,25.16,3.11,20.74,8.27,41.04,13.95,61.21.74,2.64.83,5.21-.32,7.74-1.8,3.98-5.16,5.54-9.36,4.29-10.57-3.14-21.1-6.4-31.71-9.41-2.94-.83-6.07-1.2-9.14-1.34-3.85-.17-7.51-.79-11.16-2.06-25.46-8.84-51.02-17.4-76.41-26.42-14.69-5.22-29.14-11.14-43.71-16.7-1.86-.71-3.82-1.15-5.76-1.61-1.72-.41-3.06.24-3.83,1.86-.66,1.4-1.22,2.84-1.87,4.24-2.73,5.92-9.9,9.93-15.8,8.83-.69-.13-1.38-.33-2.03-.6-30.16-12.44-60.37-24.78-90.46-37.38-20.93-8.76-41.67-17.96-62.56-26.83-6.57-2.79-13.28-5.26-20-7.66-2.39-.85-5.01-1.06-7.53-1.51-2.46-.43-4.4.59-6.06,2.3-3.58,3.7-6.43,7.83-8.03,12.8-6.61,20.61-13.11,41.25-20.02,61.76-3.01,8.94-8.43,16.35-17.65,19.92-3.12,1.21-6.61,1.67-9.97,2.02-3.8.4-7.17-1.27-9.92-3.69-6.63-5.84-13.65-11.39-19.47-17.97C.45,131.18-2.54,114.71,4.55,97.21c8.16-20.16,18.21-39.44,30.03-57.73,5.68-8.79,14.21-12.51,24.39-13.17,9.28-.6,17.83,2.13,26.33,5.35,43.89,16.63,87.79,33.26,131.72,49.78,8.57,3.22,17.3,5.99,25.96,8.96.42.15.86.24,1.47.41Zm-186.66-18.22c0-.93-.08-2.36.01-3.77.36-5.52,1.38-10.79,5.99-14.57,7.23-5.92,15.42-6.41,23.91-3.74,4.22,1.33,8.16,3.55,12.27,5.23,31.03,12.68,62.07,25.33,93.12,37.98,12.48,5.09,24.95,10.2,37.46,15.21,7.54,3.02,15.1,6,22.73,8.78,4.48,1.63,8.93,1.64,13.07-1.36,1.92-1.39,4.17-2.33,6.18-3.61,3.14-2,6.19-2.09,9.69-.68,10.63,4.29,21.36,8.31,32.04,12.45,12.07,4.68,24.02,9.71,36.22,14.03,27.96,9.89,56.05,19.41,84.06,29.17,3.58,1.25,7.15,2.21,10.94,2.13,3.99-.09,7.79.7,11.59,1.88,9.85,3.06,19.75,5.97,29.64,8.93,3.01.9,4.74-.1,5.21-3.22.17-1.16,0-2.45-.32-3.6-5.94-21.57-11.47-43.24-14.55-65.43-1.12-8.04-2-16.14-2.35-24.24-.37-8.35,1.49-16.54,3.09-24.7,1.67-8.54,3.44-17.06,3.67-25.82.13-4.93-1.64-9.08-5.21-12.21-2.53-2.22-5.55-3.98-8.56-5.55-8.33-4.36-17.32-7-26.31-9.57-6.14-1.76-9.65-.49-13.36,4.73-2.28,3.2-4.6,6.38-6.97,9.52-2.72,3.62-4.65,3.99-8.61,1.83-2.49-1.36-2.64-1.43-4.37.91-2.87,3.89-5.6,7.89-8.37,11.85-4.44,6.34-8.6,12.9-13.36,18.98-6.07,7.75-13.51,14.02-22.63,18.05-16.39,7.24-33.61,11.43-51.41,12.82-20.08,1.57-40.22,2.5-60.34,3.62-1.82.1-2.69.55-3.2,2.41-1.04,3.82-2.91,4.68-6.7,3.42-5.57-1.86-11.18-3.6-16.67-5.66-46.97-17.62-93.92-35.29-140.85-52.99-8.62-3.25-17.24-6.16-26.7-5.27-8.88.84-15.76,4.67-20.59,12.31-10.71,16.94-19.66,34.78-27.82,53.04-3.17,7.09-5.12,14.42-4.08,22.34,1.15,8.75,3.53,17.07,9.85,23.48,6.33,6.42,13.16,12.36,19.88,18.4,1.99,1.78,4.45,2.9,7.25,2.8,5.24-.19,10.18-1.54,14.09-5.11,8.4-7.67,12.94-17.1,11.09-28.63-1.71-10.62-4-21.14-6.1-31.69-1.61-8.08-4.04-16.03-3.64-24.89Zm247.24,50.58c-8.52-3.35-16.63-6.49-24.69-9.74-2.12-.86-3.96-.64-5.87.46-3.24,1.87-6.47,3.76-9.81,5.44-1.45.73-3.16,1.31-4.75,1.3-4.63-.03-9-1.43-13.26-3.16-22.05-8.93-44.11-17.82-66.13-26.82-30.26-12.37-60.52-24.74-90.68-37.33-5.39-2.25-10.67-2.78-16.23-1.81-7.23,1.26-12.4,6.34-13.44,13.35-1.01,6.81-.81,13.65.57,20.4,2.64,12.94,5.4,25.86,8.04,38.8.5,2.47.68,5,1.08,7.98.35-.97.53-1.44.69-1.92,5.17-15.94,10.39-31.87,15.47-47.84,2.04-6.4,5.62-11.67,10.63-16.06,1.79-1.56,3.89-2.47,6.22-2.16,3.56.46,7.26.73,10.6,1.92,9.16,3.28,18.25,6.8,27.21,10.6,19.63,8.31,39.1,17.01,58.77,25.25,28.78,12.06,57.67,23.87,86.54,35.72,1.28.53,2.95.66,4.31.37,4.33-.92,7.4-3.49,8.96-7.71,1.05-2.83,2.29-5.51,5.8-7.05Z"/></svg>
