<?xml version="1.0" standalone="no"?>
<!DOCTYPE svg PUBLIC "-//W3C//DTD SVG 20010904//EN"
 "http://www.w3.org/TR/2001/REC-SVG-20010904/DTD/svg10.dtd">
<svg version="1.0" xmlns="http://www.w3.org/2000/svg"
 width="1354.000000pt" height="1354.000000pt" viewBox="0 0 1354.000000 1354.000000"
 preserveAspectRatio="xMidYMid meet">
<metadata>
Created by potrace 1.14, written by Peter Selinger 2001-2017
</metadata>
<g transform="translate(0.000000,1354.000000) scale(0.100000,-0.100000)"
fill="#000000" stroke="none">
<path d="M269 10628 c0 -13 -2 -30 -4 -38 -9 -38 -26 -117 -30 -135 -4 -26
-12 -61 -24 -107 -5 -21 -7 -38 -5 -38 3 0 1 -8 -5 -17 -5 -10 -11 -37 -15
-60 -3 -24 -14 -80 -25 -125 -11 -46 -25 -112 -31 -148 -6 -36 -14 -72 -17
-80 -3 -8 -7 -24 -8 -35 -2 -17 -12 -63 -21 -100 -2 -5 -5 -23 -9 -40 -3 -16
-8 -41 -11 -55 -13 -56 -15 -66 -18 -85 -2 -11 -12 -63 -24 -115 -25 -117 -24
-130 2 -131 12 0 532 -1 1156 -2 l1135 -2 -2 -25 c-1 -14 -18 -101 -38 -195
-20 -93 -39 -181 -41 -195 -3 -14 -14 -63 -24 -110 -11 -47 -21 -96 -24 -110
-5 -30 -10 -54 -30 -140 -8 -36 -18 -81 -22 -100 -8 -45 -9 -51 -17 -75 -3
-11 -8 -38 -12 -60 -3 -22 -15 -78 -26 -125 -12 -47 -25 -110 -30 -140 -11
-59 -17 -85 -19 -85 -2 0 -7 -24 -15 -75 -4 -24 -8 -47 -10 -51 -4 -6 -16 -62
-19 -89 -1 -9 -5 -21 -10 -28 -4 -6 -5 -12 -2 -12 2 0 0 -15 -5 -32 -5 -18
-12 -49 -15 -68 -3 -19 -8 -44 -11 -55 -4 -11 -8 -27 -9 -35 -4 -25 -12 -64
-18 -90 -14 -63 -17 -77 -21 -102 -2 -15 -9 -46 -16 -70 -6 -24 -12 -52 -13
-63 -1 -11 -5 -26 -9 -32 -5 -7 -6 -13 -3 -13 2 0 0 -15 -5 -32 -5 -18 -12
-49 -15 -68 -3 -19 -9 -51 -14 -70 -5 -19 -11 -46 -14 -60 -13 -62 -18 -86
-31 -144 -8 -33 -16 -72 -19 -86 -2 -14 -10 -50 -16 -80 -6 -30 -13 -66 -16
-80 -3 -14 -7 -33 -10 -42 -3 -9 -7 -25 -9 -35 -2 -10 -9 -40 -15 -68 -6 -27
-13 -65 -16 -84 -2 -18 -6 -36 -9 -40 -2 -4 -7 -22 -10 -39 -3 -18 -12 -60
-20 -94 -8 -35 -17 -78 -20 -97 -3 -19 -8 -38 -11 -43 -3 -5 -7 -23 -9 -41 -4
-36 -3 -30 -44 -217 -16 -74 -32 -146 -35 -160 -8 -38 -47 -223 -51 -240 -13
-61 -55 -261 -60 -289 -3 -19 -8 -38 -10 -41 -3 -4 -7 -25 -11 -46 -3 -22 -10
-59 -16 -84 -5 -25 -11 -52 -13 -60 -2 -8 -9 -37 -15 -65 -7 -27 -14 -63 -17
-80 -2 -16 -16 -82 -30 -145 -13 -63 -26 -124 -29 -135 -2 -11 -9 -44 -15 -72
-5 -29 -10 -55 -10 -58 0 -2 -5 -19 -10 -37 -5 -18 -12 -49 -15 -68 -3 -19
-10 -53 -16 -75 -5 -22 -12 -51 -14 -65 -2 -14 -8 -43 -13 -65 -16 -66 -41
-178 -45 -205 -3 -14 -28 -133 -56 -265 -29 -132 -54 -251 -56 -265 -3 -14 -7
-31 -10 -39 -2 -8 -7 -30 -10 -50 -8 -46 -12 -66 -14 -66 -2 0 -8 -33 -13 -71
-2 -17 -7 -36 -11 -42 -4 -7 0 -13 11 -13 221 -16 1587 -9 1603 8 5 4 13 33
19 63 16 80 21 103 27 123 3 10 7 30 9 45 3 15 7 38 10 52 3 14 8 39 11 55 3
17 7 35 8 40 2 6 7 28 11 50 5 22 10 42 10 45 1 3 5 23 10 45 11 55 14 71 20
97 3 13 10 46 16 73 12 59 17 83 23 110 3 11 17 76 31 145 34 159 34 160 40
190 4 14 8 36 11 50 2 14 11 57 20 95 8 39 16 79 18 90 3 11 10 43 16 70 7 28
14 61 16 75 2 14 15 77 29 140 14 63 27 124 29 135 3 11 18 85 35 165 18 80
34 159 37 175 2 17 8 39 11 50 3 11 8 31 10 45 8 48 11 65 13 65 1 0 3 9 5 20
2 11 6 33 10 50 23 108 37 173 41 195 3 14 14 63 24 110 10 47 33 153 50 235
17 83 34 159 36 170 6 24 12 56 18 90 3 14 7 33 10 43 3 9 7 28 10 42 16 86
97 460 105 487 5 17 7 33 5 36 -3 2 0 15 5 29 5 14 12 40 15 59 3 19 15 77 27
129 11 52 23 106 25 120 2 14 7 37 10 52 3 15 5 30 5 33 0 2 5 19 10 37 6 18
12 49 15 68 3 19 9 53 15 74 6 22 12 51 14 65 2 14 4 26 5 26 2 0 9 36 13 65
2 14 6 30 9 35 3 6 9 30 13 55 7 45 11 66 19 98 3 9 19 82 35 162 17 80 38
175 46 211 8 36 16 77 19 90 2 13 14 67 25 119 11 52 22 106 25 120 2 14 12
59 21 100 9 41 18 84 20 95 3 11 9 40 15 65 5 25 12 57 15 73 3 15 7 37 10 50
3 12 7 31 9 42 2 11 7 31 10 45 3 14 8 37 11 53 3 15 7 37 10 50 3 12 7 31 9
42 2 11 7 31 10 45 3 14 8 36 11 50 17 90 37 183 51 231 25 85 46 93 255 95
91 0 170 4 177 7 6 4 13 4 16 -1 5 -9 89 -7 105 2 5 4 12 3 14 -1 6 -10 89 -9
104 0 7 4 14 4 16 0 6 -10 280 -9 295 1 7 4 12 4 12 -1 0 -9 114 -8 130 2 5 3
10 3 10 -2 0 -9 177 -9 186 0 3 3 13 3 22 -1 21 -8 65 -7 79 1 7 4 14 4 16 0
6 -10 100 -8 116 1 6 4 11 3 11 -1 0 -10 53 -9 69 2 6 3 11 2 11 -3 0 -8 23
-9 55 -2 6 1 12 1 15 0 15 -6 173 -4 176 2 3 4 15 3 27 -1 12 -5 32 -5 45 0
12 5 22 5 22 0 0 -9 50 -8 66 1 5 3 18 2 29 -2 11 -4 30 -4 43 1 14 6 22 5 22
-2 0 -8 4 -8 13 0 8 6 16 8 20 5 9 -9 68 -11 73 -2 3 5 13 4 22 -1 9 -5 25 -6
36 -1 12 4 30 4 41 0 11 -4 30 -4 43 1 12 5 22 5 22 1 0 -4 27 -7 60 -7 33 0
60 4 60 8 0 4 8 4 18 0 21 -10 53 -10 69 0 6 4 14 4 17 -1 4 -7 48 -8 82 -1 5
1 11 0 14 -1 15 -6 150 -4 150 3 0 5 5 5 11 1 16 -9 110 -11 116 -1 2 4 9 4
16 0 14 -8 152 -7 166 2 6 3 11 3 11 -2 0 -9 93 -9 108 1 6 3 13 3 15 -1 6
-10 89 -9 105 1 7 4 12 4 12 -1 0 -4 24 -7 52 -5 29 1 58 2 63 3 6 0 217 -2
470 -5 517 -6 679 -12 795 -30 77 -12 107 -18 125 -23 11 -4 26 -8 32 -9 31
-5 152 -47 193 -66 45 -21 107 -65 145 -103 32 -31 85 -112 85 -129 0 -9 4
-16 9 -16 7 0 33 -84 47 -155 2 -11 6 -31 9 -45 24 -109 24 -328 0 -545 -2
-22 -7 -65 -10 -95 -3 -30 -8 -64 -10 -75 -6 -27 -16 -94 -20 -125 -1 -14 -5
-38 -8 -55 -4 -16 -9 -46 -12 -65 -3 -19 -8 -42 -10 -50 -2 -8 -7 -33 -10 -55
-6 -49 -12 -81 -19 -103 -3 -9 -7 -33 -10 -52 -3 -19 -12 -69 -21 -110 -9 -41
-18 -86 -20 -100 -2 -14 -7 -36 -10 -50 -3 -14 -7 -36 -10 -50 -2 -14 -9 -47
-15 -75 -6 -27 -12 -63 -15 -80 -6 -41 -13 -78 -30 -160 -9 -39 -17 -84 -20
-100 -2 -17 -9 -50 -16 -75 -6 -25 -13 -54 -15 -65 -2 -11 -6 -31 -9 -45 -3
-14 -10 -47 -16 -75 -13 -64 -17 -79 -19 -82 -2 -2 -3 -6 -4 -10 -3 -14 -19
-87 -22 -103 -2 -8 -7 -33 -13 -55 -5 -22 -12 -51 -15 -65 -40 -174 -79 -338
-83 -350 -3 -8 -7 -22 -9 -30 -3 -14 -15 -64 -27 -115 -3 -11 -17 -65 -32
-120 -14 -55 -27 -107 -29 -115 -1 -8 -8 -35 -15 -60 -7 -25 -14 -52 -16 -60
-9 -46 -109 -329 -145 -410 -23 -52 -42 -99 -43 -105 -2 -5 -7 -17 -12 -25 -5
-8 -20 -37 -33 -65 -47 -100 -136 -220 -235 -317 -55 -54 -104 -98 -108 -98
-4 0 -14 -6 -21 -13 -15 -15 -104 -67 -115 -68 -5 0 -21 -7 -38 -14 -110 -50
-325 -101 -471 -111 -54 -4 -889 -8 -1856 -8 l-1756 -1 -17 -77 c-9 -43 -17
-80 -17 -83 0 -2 -6 -33 -15 -67 -8 -35 -17 -74 -19 -88 -3 -14 -10 -45 -15
-70 -6 -25 -13 -55 -15 -67 -9 -50 -15 -79 -30 -143 -3 -14 -8 -38 -11 -55 -8
-46 -11 -60 -13 -60 -1 0 -3 -9 -5 -20 -3 -24 -13 -71 -21 -105 -3 -14 -7 -34
-9 -45 -2 -11 -4 -20 -5 -20 -2 0 -4 -9 -5 -20 -2 -11 -10 -54 -19 -95 -10
-41 -19 -86 -21 -100 -2 -14 -11 -54 -19 -89 -8 -36 -13 -68 -10 -72 5 -9
3583 -5 3674 4 30 3 111 8 180 12 69 3 141 8 160 10 19 1 71 6 115 10 87 7
123 11 200 20 28 3 66 8 85 9 52 6 140 17 164 22 12 2 39 6 61 9 50 7 80 13
80 15 0 1 11 3 25 5 14 1 45 8 70 14 25 7 54 13 65 15 11 2 49 11 85 21 36 9
70 18 75 20 6 1 18 5 27 9 9 4 25 9 35 11 10 2 18 4 18 5 0 1 9 3 20 5 10 2
28 8 40 13 11 6 47 20 80 32 129 47 360 170 445 237 175 138 322 287 410 418
19 28 37 52 40 55 24 18 229 425 274 545 15 39 31 79 36 90 29 62 177 550 170
557 -2 2 2 12 8 24 6 11 13 32 16 45 2 13 32 132 66 264 65 253 68 265 76 305
3 14 12 52 21 85 8 33 17 69 19 80 2 11 11 47 19 80 9 33 18 76 21 95 3 19 8
42 11 50 4 13 30 121 49 210 3 14 9 41 14 60 5 19 11 46 13 60 3 14 22 102 42
195 21 94 38 181 39 195 1 14 4 27 8 30 3 3 9 26 12 51 3 25 7 52 10 60 5 13
11 40 22 104 3 17 7 39 9 50 2 11 9 45 15 75 6 30 13 67 15 82 2 15 6 35 9 45
3 10 8 34 10 53 4 31 10 64 31 160 2 13 8 42 11 65 10 60 12 76 19 115 3 19 8
46 10 60 5 36 16 101 21 130 3 14 7 41 9 60 3 19 7 49 10 65 9 58 16 116 30
245 20 181 19 173 31 310 9 100 9 506 0 600 -6 66 -15 139 -22 175 -2 11 -5
31 -8 45 -2 14 -7 36 -11 50 -3 14 -8 36 -11 50 -20 99 -126 358 -154 375 -6
3 -8 11 -5 16 4 5 2 9 -3 9 -5 0 -13 9 -18 19 -19 41 -166 201 -226 246 -104
79 -195 131 -328 188 -58 24 -139 54 -180 67 -41 12 -86 26 -100 31 -23 7
-148 34 -210 45 -14 2 -36 7 -48 10 -13 2 -43 7 -65 10 -23 3 -53 8 -67 11
-14 3 -34 7 -45 8 -11 2 -40 5 -65 8 -25 4 -67 9 -95 12 -27 3 -63 8 -80 11
-16 3 -52 7 -80 9 -27 2 -77 6 -110 9 -189 19 -356 31 -605 43 -69 3 -1949 7
-4177 10 l-4053 4 -1 -23z"/>
<path d="M9430 10646 c6 -6 128 -27 180 -32 19 -1 35 -3 35 -4 0 -1 16 -4 35
-6 19 -3 62 -11 95 -19 33 -8 71 -16 85 -19 14 -2 36 -9 50 -14 14 -5 28 -10
33 -11 77 -10 318 -96 442 -158 178 -89 378 -258 469 -398 22 -33 43 -61 48
-63 4 -2 8 -12 8 -23 0 -10 4 -19 8 -19 8 0 36 -60 33 -72 0 -5 4 -8 9 -8 6 0
10 -8 10 -18 0 -10 4 -22 9 -27 8 -10 51 -133 55 -160 1 -8 5 -18 9 -21 4 -4
7 -17 7 -29 0 -12 3 -25 7 -29 4 -3 8 -14 9 -24 8 -52 28 -92 48 -93 12 0 30
-2 41 -4 11 -2 43 -5 70 -9 28 -3 64 -8 80 -11 17 -3 44 -7 60 -10 62 -10 74
-14 149 -45 73 -31 160 -89 199 -135 23 -27 74 -133 82 -170 17 -81 19 -109
19 -230 0 -121 -10 -291 -18 -304 -2 -3 -7 -23 -10 -43 -3 -21 -11 -59 -17
-85 -6 -27 -12 -57 -15 -68 -2 -12 -13 -48 -24 -80 -11 -33 -23 -69 -25 -80
-5 -20 -29 -77 -45 -107 -6 -10 -10 -22 -10 -27 0 -12 -69 -128 -105 -176 -46
-63 -150 -161 -214 -203 -78 -52 -155 -89 -275 -132 -77 -27 -100 -40 -102
-55 -2 -11 -5 -33 -8 -50 -2 -16 -6 -37 -9 -45 -3 -8 -8 -28 -11 -45 -3 -16
-7 -41 -11 -55 -3 -14 -7 -36 -10 -50 -8 -39 -14 -71 -25 -126 -6 -28 -13 -64
-16 -80 -3 -16 -10 -49 -15 -74 -15 -63 -18 -81 -24 -115 -3 -16 -8 -37 -10
-45 -5 -18 -14 -63 -21 -105 -3 -16 -7 -37 -10 -45 -3 -8 -8 -28 -11 -45 -2
-16 -11 -58 -19 -93 -7 -34 -16 -77 -19 -95 -4 -17 -10 -50 -15 -72 -15 -66
-14 -69 48 -89 31 -10 77 -27 102 -39 25 -11 50 -21 57 -22 20 -5 96 -61 135
-100 37 -37 104 -159 112 -205 2 -14 5 -25 6 -25 1 0 3 -9 5 -20 2 -11 7 -36
11 -55 8 -43 12 -170 4 -170 -3 0 -5 -19 -6 -43 -1 -60 -9 -112 -40 -292 -3
-16 -12 -57 -21 -90 -8 -33 -16 -69 -18 -80 -2 -11 -4 -20 -5 -20 -1 0 -3 -8
-5 -17 -3 -19 -23 -85 -32 -108 -4 -8 -7 -17 -8 -20 -19 -77 -127 -303 -160
-336 -8 -9 -15 -19 -15 -24 0 -31 -239 -230 -277 -230 -7 0 -13 -4 -13 -9 0
-5 -8 -11 -17 -14 -10 -3 -54 -18 -98 -34 -44 -16 -83 -30 -88 -31 -4 0 -31
-5 -60 -11 -28 -6 -65 -13 -82 -15 -16 -3 -40 -7 -51 -9 -12 -3 -38 -8 -59
-11 -50 -8 -51 -9 -83 -74 -34 -69 -68 -128 -93 -164 -11 -14 -19 -31 -19 -36
0 -6 -3 -12 -7 -14 -9 -3 -53 -64 -53 -73 0 -3 -7 -13 -15 -22 -9 -10 -37 -45
-63 -78 -40 -52 -101 -122 -138 -159 -78 -77 -262 -226 -280 -226 -7 0 -14 -4
-16 -8 -9 -23 -326 -192 -360 -192 -8 0 -18 -3 -22 -7 -6 -6 -68 -31 -91 -36
-5 -2 -16 -6 -22 -10 -7 -5 -13 -5 -13 -1 0 3 -6 2 -12 -4 -11 -8 -73 -26 -80
-22 -2 0 -20 -6 -40 -15 -21 -8 -38 -13 -38 -10 0 2 -12 0 -26 -6 -15 -5 -43
-12 -63 -14 -20 -3 -52 -10 -71 -15 -19 -5 -93 -21 -164 -35 -71 -14 -132 -27
-135 -30 -7 -8 2237 0 2274 7 17 4 64 9 105 12 41 3 84 8 95 10 11 2 43 7 70
10 28 4 66 10 85 13 44 9 40 8 75 16 17 4 41 8 55 11 14 2 45 9 70 16 25 7 52
14 60 15 8 2 15 4 15 5 0 1 7 3 15 5 33 7 216 68 225 75 6 4 28 13 50 20 66
21 253 119 355 185 236 152 443 371 583 615 54 94 166 321 172 350 1 3 8 21
17 41 9 20 19 47 23 60 4 13 13 38 20 54 13 28 67 196 74 227 1 4 8 26 16 48
8 22 14 43 14 45 0 3 2 18 5 33 20 92 21 97 30 168 4 28 9 61 11 75 12 61 19
223 20 429 0 242 -3 277 -36 450 -18 95 -94 305 -119 330 -3 3 -14 21 -24 40
-42 77 -198 250 -225 250 -5 0 -11 3 -13 8 -13 29 -193 132 -323 185 -82 33
-228 79 -294 93 -14 3 -33 7 -41 9 -8 2 -21 4 -27 4 -30 2 -10 52 22 57 24 4
72 13 95 18 153 34 139 30 160 39 13 5 71 21 105 29 6 1 44 15 85 31 41 16 85
31 98 34 12 3 22 9 22 14 0 5 3 8 8 7 18 -5 236 106 339 173 262 173 475 409
625 697 41 79 124 266 132 297 2 6 6 17 9 25 5 14 30 89 32 100 1 3 5 12 8 20
9 22 45 169 51 214 4 21 8 42 11 46 2 4 7 25 10 46 2 21 7 50 10 64 2 13 7 40
9 60 3 19 8 58 12 85 22 168 16 481 -11 613 -3 12 -7 34 -10 50 -3 15 -8 38
-11 52 -3 14 -5 25 -4 25 4 0 -53 140 -79 195 -121 253 -305 432 -596 580 -80
41 -161 78 -190 86 -43 13 -144 47 -160 54 -18 8 -100 24 -100 20 0 -1 -12 3
-26 9 -24 8 -53 14 -134 27 -11 1 -37 5 -57 8 -74 11 -128 18 -268 33 -69 7
-2447 16 -2440 9z"/>
<path d="M5065 9300 c-2 -8 -7 -26 -9 -40 -16 -76 -27 -128 -31 -150 -3 -14
-9 -40 -14 -57 -5 -18 -8 -33 -6 -33 3 0 0 -11 -5 -24 -5 -13 -12 -43 -15 -67
-4 -24 -8 -46 -10 -50 -2 -3 -7 -20 -10 -37 -3 -18 -12 -65 -21 -105 -8 -39
-18 -83 -20 -97 -3 -14 -7 -33 -10 -42 -3 -10 -8 -30 -11 -45 -8 -42 -11 -58
-13 -58 -1 0 -3 -15 -6 -34 -2 -18 -11 -59 -18 -90 -8 -31 -17 -69 -19 -86 -3
-16 -8 -37 -11 -45 -3 -8 -7 -28 -10 -45 -3 -16 -7 -41 -10 -55 -3 -14 -8 -34
-10 -45 -25 -114 -38 -176 -42 -205 -3 -19 -8 -38 -11 -43 -2 -4 -6 -20 -9
-35 -4 -23 -22 -114 -30 -147 -1 -5 -4 -21 -7 -35 -3 -14 -10 -44 -17 -68 -6
-24 -13 -58 -15 -75 -2 -18 -7 -43 -10 -57 -12 -49 -18 -75 -19 -90 -1 -9 -5
-21 -10 -28 -4 -6 -5 -12 -2 -12 2 0 0 -15 -5 -32 -5 -18 -12 -49 -15 -68 -3
-19 -12 -60 -19 -90 -7 -30 -16 -71 -19 -90 -3 -19 -10 -50 -15 -68 -5 -18
-10 -35 -10 -37 0 -9 -22 -119 -41 -200 -10 -44 -21 -93 -23 -110 -3 -16 -9
-48 -15 -70 -6 -22 -13 -53 -15 -70 -3 -16 -9 -48 -15 -70 -6 -22 -14 -56 -17
-75 -9 -45 -13 -65 -15 -65 -1 0 -3 -15 -6 -34 -2 -18 -11 -59 -18 -90 -8 -31
-17 -69 -19 -86 -3 -16 -12 -60 -21 -98 -9 -37 -18 -79 -21 -95 -2 -15 -14
-70 -25 -122 -12 -52 -23 -106 -26 -119 -3 -13 -12 -54 -20 -90 -8 -36 -16
-75 -18 -86 -2 -11 -10 -45 -16 -75 -7 -30 -13 -62 -14 -70 -2 -8 -6 -28 -9
-45 -4 -16 -10 -41 -12 -55 -14 -64 -26 -118 -34 -152 -5 -21 -7 -38 -4 -38 3
0 0 -6 -6 -13 -6 -8 -9 -16 -6 -19 3 -2 0 -20 -5 -39 -11 -35 -20 -79 -25
-114 -2 -11 -4 -20 -5 -20 -1 0 -3 -9 -5 -20 -2 -11 -7 -36 -11 -55 -4 -19 -9
-42 -10 -50 -1 -8 -10 -46 -19 -85 -9 -38 -18 -83 -21 -100 -3 -16 -14 -67
-25 -113 -23 -102 -24 -119 -1 -124 9 -2 104 -4 209 -3 106 0 193 -3 193 -7 0
-4 6 -5 14 -2 24 9 146 10 146 1 0 -4 5 -5 11 -1 6 3 228 8 492 11 518 4 539
5 533 10 -2 3 2 31 10 63 7 33 16 74 19 92 3 18 8 40 10 48 2 8 7 29 10 45 3
17 8 41 11 55 3 14 7 32 9 40 2 8 4 15 5 15 1 0 3 9 4 20 2 11 6 36 11 55 5
19 9 44 11 55 1 11 3 20 4 20 2 0 4 9 15 65 8 41 10 52 19 105 4 22 12 54 16
70 5 17 12 50 15 75 4 24 9 48 12 52 2 5 6 21 9 36 3 15 14 70 25 122 11 52
22 104 25 115 2 11 8 43 14 70 6 28 12 60 15 73 2 13 7 32 10 42 3 10 8 33 10
51 3 19 9 49 15 68 5 19 7 38 4 42 -3 5 -1 9 3 9 5 0 9 8 9 18 1 19 10 64 25
132 6 25 13 56 15 70 5 26 32 152 65 305 11 50 22 101 24 115 5 32 13 67 19
88 3 9 8 33 11 52 3 19 13 64 21 100 9 36 18 81 20 100 3 19 8 44 11 55 4 11
8 25 9 30 1 9 16 81 29 145 3 14 8 36 10 50 2 14 13 63 24 110 10 47 21 99 24
115 11 57 18 90 23 107 3 10 7 30 10 45 4 24 8 45 20 98 1 6 4 21 7 35 3 14
17 79 31 145 14 66 28 134 31 150 9 55 14 75 19 83 2 4 7 28 11 52 3 25 10 59
15 75 4 17 11 46 14 65 3 19 9 46 12 60 3 14 7 32 8 40 2 8 6 31 11 50 5 19 9
42 10 50 0 8 4 21 8 28 5 6 6 12 3 12 -2 0 0 15 5 33 5 17 12 48 15 67 5 32
49 237 60 285 3 11 7 31 10 45 2 14 9 48 15 75 6 28 13 64 16 80 2 17 8 46 14
66 10 39 28 128 35 169 2 14 10 52 18 85 8 33 13 62 11 64 -2 2 -362 4 -800 5
-699 1 -796 -1 -800 -14z"/>
<path d="M7483 9312 c-13 -2 -23 -6 -24 -10 -1 -11 -7 -45 -15 -82 -4 -19 -9
-42 -10 -50 -1 -8 -9 -44 -18 -80 -8 -36 -17 -76 -20 -90 -3 -20 -55 -261 -82
-385 -2 -11 -6 -29 -8 -40 -2 -11 -12 -56 -21 -100 -9 -44 -19 -91 -21 -105
-3 -14 -11 -52 -19 -85 -8 -33 -21 -94 -30 -135 -8 -41 -19 -93 -24 -114 -6
-22 -9 -42 -9 -45 0 -3 -1 -9 -2 -13 -1 -5 -4 -12 -5 -18 -1 -5 -4 -13 -5 -17
-3 -9 -3 -12 -14 -80 -4 -29 -12 -56 -17 -59 -5 -3 -7 -9 -5 -13 3 -4 1 -24
-5 -44 -5 -21 -12 -49 -14 -65 -6 -42 -15 -85 -22 -107 -3 -11 -7 -29 -9 -40
-2 -11 -13 -63 -24 -115 -12 -52 -23 -106 -26 -120 -2 -14 -11 -56 -20 -95 -9
-38 -18 -79 -20 -90 -2 -11 -6 -31 -9 -45 -3 -14 -7 -34 -9 -45 -3 -11 -12
-54 -21 -95 -9 -41 -19 -88 -21 -105 -3 -16 -8 -37 -11 -45 -3 -8 -7 -24 -9
-35 -4 -33 -25 -130 -89 -420 -3 -11 -8 -36 -11 -55 -10 -52 -11 -59 -28 -135
-9 -38 -18 -81 -21 -95 -2 -14 -18 -86 -34 -161 -17 -74 -33 -151 -36 -170 -3
-19 -15 -70 -25 -114 -11 -44 -22 -96 -25 -115 -2 -19 -16 -84 -30 -145 -14
-60 -28 -121 -30 -135 -3 -14 -7 -36 -10 -50 -4 -14 -8 -34 -10 -45 -6 -35
-16 -78 -30 -143 -8 -34 -17 -77 -20 -95 -4 -17 -11 -52 -17 -77 -6 -25 -12
-54 -13 -65 -2 -11 -22 -105 -45 -210 -23 -104 -44 -201 -46 -215 -3 -14 -7
-31 -9 -37 -5 -16 4 -16 255 -13 107 1 277 3 377 3 101 1 183 5 183 9 0 4 11
3 24 -2 13 -5 26 -7 29 -4 2 3 58 7 123 9 117 4 205 11 254 20 14 3 41 7 60
10 57 9 121 22 185 39 66 17 126 43 129 55 3 9 28 124 56 256 29 132 54 247
56 255 6 27 40 179 49 226 3 14 12 54 20 88 8 33 16 72 19 86 3 14 17 79 31
145 25 114 29 133 39 180 2 11 9 38 15 60 5 22 13 54 15 70 7 35 6 30 46 210
17 77 32 145 34 150 4 13 18 103 18 112 0 14 18 31 38 36 11 3 18 1 14 -4 -3
-5 2 -6 10 -3 19 7 276 11 276 3 0 -3 21 -3 48 1 26 3 64 3 85 -1 22 -3 43 -1
51 5 11 9 85 281 91 336 1 8 5 29 8 45 9 35 16 71 23 103 2 12 6 33 9 47 3 14
7 37 10 53 3 15 8 34 10 42 3 8 7 33 10 55 4 22 8 48 11 57 5 18 8 32 18 98 3
19 8 46 11 60 3 14 7 41 10 60 3 19 8 58 13 85 4 28 7 57 7 65 0 13 -35 15
-253 15 -138 0 -252 1 -252 1 0 2 40 192 47 224 3 14 7 34 8 45 2 11 4 20 5
20 1 0 3 8 5 18 2 11 13 65 25 120 12 56 24 111 26 122 10 51 14 68 18 83 3 9
8 33 11 52 3 19 16 87 30 150 34 153 36 162 38 183 1 9 5 17 10 17 4 0 6 4 3
8 -3 4 -1 26 4 48 5 21 11 50 14 64 23 119 65 300 71 310 5 9 4 11 -4 6 -8 -5
-9 -1 -1 16 12 28 61 262 63 302 2 29 0 30 -83 53 -47 13 -94 26 -105 27 -11
2 -49 9 -85 15 -172 28 -200 30 -635 36 -198 3 -416 7 -485 8 -69 1 -135 1
-147 -1z"/>
</g>
</svg>
