<?xml version="1.0" encoding="UTF-8"?><svg id="Layer_1" fill="#fff" xmlns="http://www.w3.org/2000/svg" xmlns:xlink="http://www.w3.org/1999/xlink" viewBox="0 0 677 388"><defs><style>.cls-1{fill:none;}.cls-2{clip-path:url(#clippath);}</style><clipPath id="clippath"><rect class="cls-1" x=".12" width="676.88" height="388"/></clipPath></defs><g class="cls-2"><path d="m184.95,386.93c4.57-21.6,9.07-42.68,13.57-64.05h78l80.55-.15c6.38,0,12.75.07,19.12-.23,10.13-.36,20.09-2.71,29.32-6.9,4.95-2.18,8.85-5.93,12.75-9.68,5.78-5.7,9.6-12.68,12.9-19.95,5.25-11.4,8.77-23.33,11.85-35.4,6.82-26.93,13.2-53.93,18.23-81.3,1.8-9.75,3.9-19.5,5.63-29.32,1.88-11.18,3.52-22.35,3.9-33.75.2-6.37-.51-12.73-2.1-18.9-2.25-8.85-7.5-15.07-16.05-18.23-7.29-2.7-14.96-4.27-22.73-4.65-11.18-.45-22.43-.82-33.68-.82-64.05-.1-128.05-.1-192,0h-3.45l-4.12,2.7-67.95,320.1c-2.93.75-76.35.9-81,.15,5.55-26.62,11.4-53.18,17.02-79.8s11.33-53.25,17.03-79.88c5.7-26.62,11.47-53.25,17.18-79.87l17.1-79.87c-.15-.15-.15-.23-.3-.3l-.3-.22H.75l-.38-.15-.3-.22c0-.15-.07-.23-.07-.38-.01-.38.01-.75.07-1.12C4.58,43.27,9.15,21.9,13.8.15l3.82-.15h300.38c21.52,0,42.97.07,64.5.23,15.15.07,30.22,0,45.38.6,11.93.45,23.93,1.57,35.85,2.78,8.55.9,17.03,2.25,25.5,3.82,10.23,1.78,20.14,5.07,29.4,9.75,14.02,7.2,23.77,18.38,28.72,33.45,2.92,8.92,4.51,18.22,4.73,27.6.15,5.1.6,10.2.38,15.3-.38,7.35-1.12,14.7-1.88,21.98s-1.43,12.9-2.4,19.27c-.98,6.38-2.03,12.83-3.23,19.2-2.32,12.6-4.65,25.2-7.27,37.8-3.68,17.25-7.5,34.5-11.62,51.68-3.6,15-7.43,29.93-11.62,44.78-4,14.29-9.51,28.12-16.43,41.25-7.72,14.82-19.27,27.3-33.45,36.15-6.25,3.71-12.86,6.78-19.73,9.15-12.23,4.43-24.98,6.83-37.88,8.4-24.82,3.07-49.8,3.82-74.85,3.75-47.7-.1-95.45-.1-143.25,0h-3.9Zm0,0"/><path d="m554.55,62.32c-1.43-4.88-2.62-9.3-4.05-13.65-2.47-7.51-6.42-14.45-11.62-20.4-7.43-8.7-16.88-14.25-27.38-18.38-11.21-4.26-22.9-7.16-34.8-8.62-1.98-.24-3.94-.67-5.85-1.27h94.28c9,.07,18,.07,27,.68,15.07,1.05,30,3.38,43.95,9.75,10.57,4.8,20.18,11.02,27.38,20.32,6.63,8.52,10.83,18.68,12.15,29.4,2.03,14.78.67,29.4-2.47,43.88-2.41,11.36-6.38,22.34-11.78,32.62-8.89,17.08-22.93,30.94-40.12,39.6-11.49,5.78-23.77,9.8-36.45,11.93l-1.27.38c-.23.52-.45,1.2-.9,2.18l8.17,1.95c9.68,2.7,18.83,6.38,26.93,12.52,9.38,7.05,15.23,16.43,18.23,27.6,2.08,7.85,3.09,15.95,3,24.07.07,10.73-.45,21.45-2.4,32.1-.88,4.89-2.13,9.7-3.75,14.4-4.05,12.6-9.15,24.82-16.27,36.07-7.68,12.21-18.21,22.38-30.68,29.62-14.32,8.32-29.77,13.12-46.12,15.68-11.25,1.61-22.61,2.36-33.98,2.25h-94.05v-.38c6.97-1.43,13.95-2.7,20.85-4.27,17.62-4.2,33.75-11.4,47.4-23.62,8.55-7.65,15.3-16.8,21-26.7,1.42-2.47,2.7-5.02,3.97-7.42,4.43-.83,8.62-1.43,12.75-2.33,5.02-1.02,9.86-2.81,14.33-5.32,8.55-4.72,14.17-12,18.15-20.77,3.97-8.78,6-17.1,7.72-26.1.83-4.12,1.42-8.32,1.95-12.52.89-6.23.3-12.57-1.73-18.53-1.87-5.63-5.89-10.29-11.18-12.97-2.71-1.27-5.49-2.39-8.32-3.38l-3.3-1.05c4.35-20.62,8.55-41.1,12.75-61.5,3.23-1.12,6.3-2.1,9.3-3.3,13.88-5.55,22.73-15.82,27.6-29.7,4.42-12.25,6.44-25.24,5.92-38.25-.13-3.23-.76-6.42-1.88-9.45-2.17-6.53-7.05-10.43-13.2-12.98-6.15-2.55-11.32-2.85-17.17-3.6l-4.05-.53Zm0,0"/></g><path d="m373.2,66.82c1.5,0,2.7-.07,3.9,0,15.23.23,30.53.23,45.75.68,8.61.28,17.15,1.61,25.43,3.98,1.1.3,2.18.67,3.23,1.12-3,15.15-6.3,30.22-9.45,45.3-3.15,15.08-6.3,29.93-9.6,45.3h25.35c.38,4.05-7.88,45.3-11.25,56.25h-25.88l-20.62,94.35c-2.85.9-5.62,1.88-8.55,2.55-7.53,1.79-15.22,2.8-22.95,3l-43.8.9-5.62-.23c18.07-84.52,36-168.75,54.07-253.2h0Zm0,0"/><path d="m280.13,319.73c-3,.67-73.12.9-80.25.37l-.23-.3-.15-.3c-.07-.37-.07-.75,0-1.12,17.9-83.8,35.85-167.63,53.85-251.48h80.1c-17.8,84.45-35.57,168.73-53.32,252.83h0Zm0,0"/></svg>
